<svg width="16" height="16" viewBox="0 0 16 16" fill="none" xmlns="http://www.w3.org/2000/svg">
<path d="M10.6667 2.66666H12C12.3536 2.66666 12.6927 2.80713 12.9428 3.05718C13.1928 3.30723 13.3333 3.64637 13.3333 3.99999V13.3333C13.3333 13.6869 13.1928 14.0261 12.9428 14.2761C12.6927 14.5262 12.3536 14.6667 12 14.6667H3.99999C3.64637 14.6667 3.30723 14.5262 3.05718 14.2761C2.80713 14.0261 2.66666 13.6869 2.66666 13.3333V3.99999C2.66666 3.64637 2.80713 3.30723 3.05718 3.05718C3.30723 2.80713 3.64637 2.66666 3.99999 2.66666H5.33332" stroke="#D1D1D1" stroke-linecap="round" stroke-linejoin="round"/>
<path d="M10 1.33334H6.00001C5.63182 1.33334 5.33334 1.63182 5.33334 2.00001V3.33334C5.33334 3.70153 5.63182 4.00001 6.00001 4.00001H10C10.3682 4.00001 10.6667 3.70153 10.6667 3.33334V2.00001C10.6667 1.63182 10.3682 1.33334 10 1.33334Z" stroke="#D1D1D1" stroke-linecap="round" stroke-linejoin="round"/>
</svg>
